<svg xmlns="http://www.w3.org/2000/svg" viewBox="0 0 960 536" width="100%" role="img" aria-labelledby="t d" data-canvas="standard" preserveAspectRatio="xMidYMid meet" style="max-width:100%;height:auto;display:block" font-family="Inter, -apple-system, 'Segoe UI', Roboto, Helvetica, Arial, sans-serif"><title id="t">The newspaper seller: how far up the range to buy</title><desc id="d">A newspaper seller stocks copies before knowing demand. Below, ten equally likely demand outcomes from lowest to highest; with running short costing four times holding a spare, the fraction is 0.8, so the plan covers the eighth-lowest and accepts running short in the two above. A note credits the textbook newsvendor formula [78], which this paper calls the shortage-to-idle ratio.</desc><defs><pattern id="k-hatch-light" patternUnits="userSpaceOnUse" width="7" height="7" patternTransform="rotate(45)"><rect width="7" height="7" fill="#FFFFFF"/><line x1="0" y1="0" x2="0" y2="7" stroke="#CBD2D9" stroke-width="1.2"/></pattern></defs><rect x="0" y="0" width="960" height="536" fill="#FFFFFF"/>
<line x1="36" y1="232" x2="492" y2="232" stroke="#8A96A3" stroke-width="1.25" stroke-linecap="round"/>
<line x1="162" y1="92" x2="162" y2="232" stroke="#1F2933" stroke-width="1.75" stroke-linecap="round"/>
<line x1="378" y1="92" x2="378" y2="232" stroke="#1F2933" stroke-width="1.75" stroke-linecap="round"/>
<path d="M249.6,181.6 V154.8 Q249.6,144.8 270,144.8 Q290.4,144.8 290.4,154.8 V181.6 Z" fill="#CBD2D9" stroke="#1F2933" stroke-width="1.75" stroke-linejoin="round" stroke-linecap="round"/>
<path d="M264,181.6 V232 M276,181.6 V232" fill="none" stroke="#1F2933" stroke-width="2.25" stroke-linejoin="round" stroke-linecap="round"/>
<circle cx="270" cy="126.4" r="14.4" fill="#CBD2D9" stroke="#1F2933" stroke-width="1.75"/>
<path d="M140,92 L160,62 H380 L400,92 Z" fill="#E4E7EB" stroke="#1F2933" stroke-width="1.75" stroke-linejoin="round" stroke-linecap="round"/>
<path d="M140,92 A10,8 0 0 1 160,92 A10,8 0 0 1 180,92 A10,8 0 0 1 200,92 A10,8 0 0 1 220,92 A10,8 0 0 1 240,92 A10,8 0 0 1 260,92 A10,8 0 0 1 280,92 A10,8 0 0 1 300,92 A10,8 0 0 1 320,92 A10,8 0 0 1 340,92 A10,8 0 0 1 360,92 A10,8 0 0 1 380,92 A10,8 0 0 1 400,92 " fill="#F5F7FA" stroke="#1F2933" stroke-width="1.5" stroke-linejoin="round" stroke-linecap="round"/>
<rect x="150" y="160" width="240" height="72" fill="#F5F7FA" stroke="#1F2933" stroke-width="1.75"/>
<line x1="150" y1="174" x2="390" y2="174" stroke="#8A96A3" stroke-width="1.25" stroke-linecap="round"/>
<rect x="172" y="155" width="52" height="5" fill="#FFFFFF" stroke="#1F2933" stroke-width="1.25"/>
<rect x="174" y="150" width="52" height="5" fill="#FFFFFF" stroke="#1F2933" stroke-width="1.25"/>
<rect x="172" y="145" width="52" height="5" fill="#FFFFFF" stroke="#1F2933" stroke-width="1.25"/>
<rect x="174" y="140" width="52" height="5" fill="#FFFFFF" stroke="#1F2933" stroke-width="1.25"/>
<rect x="172" y="135" width="52" height="5" fill="#FFFFFF" stroke="#1F2933" stroke-width="1.25"/>
<rect x="174" y="130" width="52" height="5" fill="#FFFFFF" stroke="#1F2933" stroke-width="1.25"/>
<rect x="316" y="155" width="52" height="5" fill="#FFFFFF" stroke="#1F2933" stroke-width="1.25"/>
<rect x="318" y="150" width="52" height="5" fill="#FFFFFF" stroke="#1F2933" stroke-width="1.25"/>
<rect x="316" y="145" width="52" height="5" fill="#FFFFFF" stroke="#1F2933" stroke-width="1.25"/>
<rect x="318" y="140" width="52" height="5" fill="#FFFFFF" stroke="#1F2933" stroke-width="1.25"/>
<rect x="316" y="135" width="52" height="5" fill="#FFFFFF" stroke="#1F2933" stroke-width="1.25"/>
<rect x="318" y="130" width="52" height="5" fill="#FFFFFF" stroke="#1F2933" stroke-width="1.25"/>
<rect x="58" y="200" width="66" height="32" fill="#E4E7EB" stroke="#1F2933" stroke-width="1.75"/>
<path d="M70,201 L76,184 L112,190 L106,201" fill="#FFFFFF" stroke="#1F2933" stroke-width="1.5" stroke-linejoin="round" stroke-linecap="round"/>
<line x1="80" y1="191" x2="102" y2="194" stroke="#8A96A3" stroke-width="1.25" stroke-linecap="round"/>
<path d="M431.68,191.68 V173.04 Q431.68,163.04 448,163.04 Q464.32,163.04 464.32,173.04 V191.68 Z" fill="#E4E7EB" stroke="#1F2933" stroke-width="1.75" stroke-linejoin="round" stroke-linecap="round"/>
<path d="M443,191.68 L434,232 M453,191.68 L462,232" fill="none" stroke="#1F2933" stroke-width="2.25" stroke-linejoin="round" stroke-linecap="round"/>
<circle cx="448" cy="147.52" r="11.52" fill="#E4E7EB" stroke="#1F2933" stroke-width="1.75"/>
<path d="M470,168 L495.6,168" fill="none" stroke="#616E7C" stroke-width="1.5" stroke-linejoin="round" stroke-linecap="round"/>
<path d="M502,168 L494,172 L494,164 Z" fill="#616E7C" stroke="none" stroke-linejoin="round" stroke-linecap="round"/>
<circle cx="176" cy="142" r="2.5" fill="#616E7C" stroke="none"/>
<text x="140" y="126" font-size="15" fill="#3E4C59" text-anchor="end" stroke="#FFFFFF" stroke-width="4" paint-order="stroke" stroke-linejoin="round">copies stocked</text>
<polyline points="176,142 176,120.75 145,120.75" fill="none" stroke="#8A96A3" stroke-width="1" stroke-linejoin="round" stroke-linecap="round"/>
<text x="91" y="254" font-size="15" fill="#3E4C59" text-anchor="middle">unsold copy</text>
<text x="448" y="254" font-size="15" fill="#3E4C59" text-anchor="middle">buyer turned away</text>
<text x="270" y="282" font-size="15" fill="#3E4C59" text-anchor="middle">stock before knowing how many will sell</text>
<text x="560" y="78" font-size="15" fill="#3E4C59"><tspan x="560" dy="0">For example, if being short costs four times what a</tspan><tspan x="560" dy="19.5">spare unit costs:</tspan></text>
<text x="560" y="134" font-size="17" fill="#1F2933" font-weight="600">shortage-to-idle ratio 4 : 1</text>
<text x="560" y="166" font-size="19" fill="#0B63C4" font-weight="600" style="font-feature-settings:'tnum' 1">→ 4 / (4 + 1) = 0.8</text>
<text x="560" y="214" font-size="19" fill="#1F2933">C<tspan font-size="15" dy="4">u</tspan><tspan dy="-4"> / (C</tspan><tspan font-size="15" dy="4">u</tspan><tspan dy="-4"> + C</tspan><tspan font-size="15" dy="4">o</tspan><tspan dy="-4">)</tspan></text>
<text x="560" y="242" font-size="15" fill="#3E4C59">cost of being short ÷ (cost of short + cost of spare)</text>
<text x="560" y="274" font-size="15" fill="#3E4C59"><tspan x="560" dy="0">Textbooks call the whole problem the newsvendor</tspan><tspan x="560" dy="19.5">problem [78]; this paper, the shortage-to-idle ratio.</tspan></text>
<rect x="60" y="352" width="840" height="34" fill="url(#k-hatch-light)" stroke="none" data-cat="uncovered" data-cue="pattern"/>
<rect x="60" y="352" width="672" height="34" fill="#CBD2D9" stroke="none" data-cat="covered" data-cue="label"/>
<line x1="144" y1="352" x2="144" y2="386" stroke="#8A96A3" stroke-width="1" stroke-linecap="butt"/>
<line x1="228" y1="352" x2="228" y2="386" stroke="#8A96A3" stroke-width="1" stroke-linecap="butt"/>
<line x1="312" y1="352" x2="312" y2="386" stroke="#8A96A3" stroke-width="1" stroke-linecap="butt"/>
<line x1="396" y1="352" x2="396" y2="386" stroke="#8A96A3" stroke-width="1" stroke-linecap="butt"/>
<line x1="480" y1="352" x2="480" y2="386" stroke="#8A96A3" stroke-width="1" stroke-linecap="butt"/>
<line x1="564" y1="352" x2="564" y2="386" stroke="#8A96A3" stroke-width="1" stroke-linecap="butt"/>
<line x1="648" y1="352" x2="648" y2="386" stroke="#8A96A3" stroke-width="1" stroke-linecap="butt"/>
<line x1="732" y1="352" x2="732" y2="386" stroke="#8A96A3" stroke-width="1" stroke-linecap="butt"/>
<line x1="816" y1="352" x2="816" y2="386" stroke="#8A96A3" stroke-width="1" stroke-linecap="butt"/>
<rect x="60" y="352" width="840" height="34" fill="none" stroke="#616E7C" stroke-width="1.25"/>
<line x1="732" y1="342" x2="732" y2="396" stroke="#0B63C4" stroke-width="3" stroke-linecap="butt"/>
<text x="732" y="336" font-size="15" fill="#0B63C4" text-anchor="middle" font-weight="600" stroke="#FFFFFF" stroke-width="4" paint-order="stroke" stroke-linejoin="round">cover to</text>
<text x="60" y="336" font-size="15" fill="#3E4C59">ten equally likely outcomes, lowest → highest</text>
<text x="816" y="374" font-size="15" fill="#3E4C59" text-anchor="middle" stroke="#FFFFFF" stroke-width="4" paint-order="stroke" stroke-linejoin="round">accept short</text>
<path d="M60,392 V400 H730 V392 M395,400 V405" fill="none" stroke="#616E7C" stroke-width="1.5" stroke-linejoin="round" stroke-linecap="round"/>
<text x="395" y="424" font-size="15" fill="#3E4C59" text-anchor="middle" stroke="#FFFFFF" stroke-width="4" paint-order="stroke" stroke-linejoin="round">covered: up to the eighth-lowest (0.8)</text>
<line x1="24" y1="436" x2="936" y2="436" stroke="#CBD2D9" stroke-width="1.25" stroke-linecap="butt"/>
<text x="24" y="461" font-size="15" fill="#3E4C59">In the scene → in capacity terms:</text>
<text x="273.15" y="461" font-size="15" fill="#3E4C59">papers</text>
<text x="322.25" y="461" font-size="15" fill="#3E4C59"> → </text>
<text x="344.99" y="461" font-size="15" fill="#1F2933" font-weight="600">capacity bought</text>
<text x="476.41" y="461" font-size="15" fill="#3E4C59" text-anchor="middle">·</text>
<text x="490.41" y="461" font-size="15" fill="#3E4C59">unsold copy</text>
<text x="577.26" y="461" font-size="15" fill="#3E4C59"> → </text>
<text x="600" y="461" font-size="15" fill="#1F2933" font-weight="600">idle capacity</text>
<text x="24" y="485" font-size="15" fill="#3E4C59">turned-away buyer</text>
<text x="159.73" y="485" font-size="15" fill="#3E4C59"> → </text>
<text x="182.47" y="485" font-size="15" fill="#1F2933" font-weight="600">shortage</text>
<text x="936" y="508" font-size="15" fill="#3E4C59" text-anchor="end">Illustrative numbers</text>
</svg>
