<svg xmlns="http://www.w3.org/2000/svg" viewBox="0 0 960 340" width="100%" role="img" aria-labelledby="t d" data-canvas="band" preserveAspectRatio="xMidYMid meet" style="max-width:100%;height:auto;display:block" font-family="Inter, -apple-system, 'Segoe UI', Roboto, Helvetica, Arial, sans-serif" xmlns:c2pa="http://c2pa.org/manifest"><metadata><c2pa:manifest>AAAWgmp1bWIAAAAeanVtZGMycGEAEQAQgAAAqgA4m3EDYzJwYQAAABZcanVtYgAAAEdqdW1kYzJtYQARABCAAACqADibcQN1cm46YzJwYToyMDkzOGUyMi0xZDk5LTQ1NzUtOGZlYy1iYTI4MzQwODkzN2EAAAADl2p1bWIAAAApanVtZGMyYXMAEQAQgAAAqgA4m3EDYzJwYS5hc3NlcnRpb25zAAAAALxqdW1iAAAARGp1bWRjYm9yABEAEIAAAKoAOJtxE2MycGEuaW5ncmVkaWVudC52MwAAAAAYYzJzaDRjinSuqqE7DtWAlJio550AAABwY2JvcqNpZGM6Zm9ybWF0bWltYWdlL3N2Zyt4bWxqaW5zdGFuY2VJRHgseG1wOmlpZDo4OTA3MjhkYy0wN2MyLTQ3NjMtYWFkYi0zMzcwYTAyYWU2YTJscmVsYXRpb25zaGlwaHBhcmVudE9mAAAB4mp1bWIAAABBanVtZGNib3IAEQAQgAAAqgA4m3ETYzJwYS5hY3Rpb25zLnYyAAAAABhjMnNoIGCXMkqAHXagmS13dCS8FwAAAZljYm9yomdhY3Rpb25zgqJmYWN0aW9ua2MycGEub3BlbmVkanBhcmFtZXRlcnOha2luZ3JlZGllbnRzgaJjdXJseC1zZWxmI2p1bWJmPWMycGEuYXNzZXJ0aW9ucy9jMnBhLmluZ3JlZGllbnQudjNkaGFzaFggYstQNcdTssi8SXoVbdspVk993T/ac2MtIc6v+XhQZiekZmFjdGlvbngdY29tLmFudGhyb3BpYy5jbGF1ZGUucHJvdmlkZWRqcGFyYW1ldGVyc6F4H2NvbS5hbnRocm9waWMub3JpZ2luLWNvbmZpZGVuY2VndW5rbm93bmtkZXNjcmlwdGlvbnhmQ2xhdWRlIHByb3ZpZGVkIHRoaXMgZmlsZSBhdCB0aGUgcmVxdWVzdCBvZiBhIHVzZXIgYW5kIG1heSBoYXZlIGNyZWF0ZWQgb3IgbW9kaWZpZWQgdGhlIGZpbGUgY29udGVudHMubXNvZnR3YXJlQWdlbnShZG5hbWVmQ2xhdWRlcmFsbEFjdGlvbnNJbmNsdWRlZPUAAADIanVtYgAAAEBqdW1kY2JvcgARABCAAACqADibcRNjMnBhLmhhc2guZGF0YQAAAAAYYzJzaDsVz/WoY4kowpTrwMRNYOMAAACAY2JvcqVjYWxnZnNoYTI1NmNwYWRMAAAAAAAAAAAAAAAAZGhhc2hYIOU/cqyaRPy/Jawx4sfwlm4cA+TQdUTnBhV8fzx7/jncZG5hbWVuanVtYmYgbWFuaWZlc3RqZXhjbHVzaW9uc4GiZXN0YXJ0GQFoZmxlbmd0aBkeBAAAAj5qdW1iAAAAJ2p1bWRjMmNsABEAEIAAAKoAOJtxA2MycGEuY2xhaW0udjIAAAACD2Nib3KlY2FsZ2ZzaGEyNTZpc2lnbmF0dXJleE1zZWxmI2p1bWJmPS9jMnBhL3VybjpjMnBhOjIwOTM4ZTIyLTFkOTktNDU3NS04ZmVjLWJhMjgzNDA4OTM3YS9jMnBhLnNpZ25hdHVyZWppbnN0YW5jZUlEeCx4bXA6aWlkOjdkZjNjNjY5LTVhZDgtNGE2My1hZmY1LWQ4NjNjMWM3ZjQzZnJjcmVhdGVkX2Fzc2VydGlvbnODomN1cmx4LXNlbGYjanVtYmY9YzJwYS5hc3NlcnRpb25zL2MycGEuaW5ncmVkaWVudC52M2RoYXNoWCBiy1A1x1OyyLxJehVt2ylWT33dP9pzYy0hzq/5eFBmJ6JjdXJseCpzZWxmI2p1bWJmPWMycGEuYXNzZXJ0aW9ucy9jMnBhLmFjdGlvbnMudjJkaGFzaFggzMKnUPyQ8nVnZMw9FYrQjrZd7mXqG+rXjE7Rgsm4bhKiY3VybHgpc2VsZiNqdW1iZj1jMnBhLmFzc2VydGlvbnMvYzJwYS5oYXNoLmRhdGFkaGFzaFggcbfWb9Q/MvIxhIl+xNpCoW5Uzo/fsXkIEr4FKWDUX3x0Y2xhaW1fZ2VuZXJhdG9yX2luZm+jZG5hbWVvQW50aHJvcGljIEZpbGVzZ3ZlcnNpb25lMS4wLjBrc3BlY1ZlcnNpb25lMi40LjAAABA4anVtYgAAAChqdW1kYzJjcwARABCAAACqADibcQNjMnBhLnNpZ25hdHVyZQAAABAIY2JvctKEWQISogEmGCFZAgowggIGMIIBjaADAgECAhRA5aAK7sI50L64g/oGQgU9Z1UTADAKBggqhkjOPQQDAzBJMRcwFQYDVQQKEw5BbnRocm9waWMsIFBCQzEuMCwGA1UEAxMlQW50aHJvcGljIENvbnRlbnQgQ3JlZGVudGlhbHMgUm9vdCBDQTAeFw0yNjA4MDcxODQzNTZaFw0yODA4MDYxOTQzNTZaMEQxFzAVBgNVBAoTDkFudGhyb3BpYywgUEJDMSkwJwYDVQQDEyBBbnRocm9waWMgQ2xhdWRlIENvbnRlbnQgU2lnbmluZzBZMBMGByqGSM49AgEGCCqGSM49AwEHA0IABJh6CmvLUBgFFNU0vUKlOVtE6djd17L5SuwX0LemFisBM3dkd/3cyjxFA3Qo5S46fX0/ihY0VZ7mfb9KF703t5OjWDBWMA4GA1UdDwEB/wQEAwIHgDAVBgNVHSUEDjAMBgorBgEEAYPoXgIBMAwGA1UdEwEB/wQCMAAwHwYDVR0jBBgwFoAUzlHiBIFOZFsj+OPEz5o+nMHXXMIwCgYIKoZIzj0EAwMDZwAwZAIwMXMdFJ4BetLLVY7ORuE9noqbbAZOZn/aArXyTwFAZfKrPzxF2vPoJNf1+UCdg1XGAjBwX1zd9WGqYkqmL5SFqw1QySjr1zJfpJM9+1rdDwSPLMOPOjKuiXjoU/pUUeG9RwmhY3BhZFkNngAAAAAAAAAAAAAAAAAAAAAAAAAAAAAAAAAAAAAAAAAAAAAAAAAAAAAAAAAAAAAAAAAAAAAAAAAAAAAAAAAAAAAAAAAAAAAAAAAAAAAAAAAAAAAAAAAAAAAAAAAAAAAAAAAAAAAAAAAAAAAAAAAAAAAAAAAAAAAAAAAAAAAAAAAAAAAAAAAAAAAAAAAAAAAAAAAAAAAAAAAAAAAAAAAAAAAAAAAAAAAAAAAAAAAAAAAAAAAAAAAAAAAAAAAAAAAAAAAAAAAAAAAAAAAAAAAAAAAAAAAAAAAAAAAAAAAAAAAAAAAAAAAAAAAAAAAAAAAAAAAAAAAAAAAAAAAAAAAAAAAAAAAAAAAAAAAAAAAAAAAAAAAAAAAAAAAAAAAAAAAAAAAAAAAAAAAAAAAAAAAAAAAAAAAAAAAAAAAAAAAAAAAAAAAAAAAAAAAAAAAAAAAAAAAAAAAAAAAAAAAAAAAAAAAAAAAAAAAAAAAAAAAAAAAAAAAAAAAAAAAAAAAAAAAAAAAAAAAAAAAAAAAAAAAAAAAAAAAAAAAAAAAAAAAAAAAAAAAAAAAAAAAAAAAAAAAAAAAAAAAAAAAAAAAAAAAAAAAAAAAAAAAAAAAAAAAAAAAAAAAAAAAAAAAAAAAAAAAAAAAAAAAAAAAAAAAAAAAAAAAAAAAAAAAAAAAAAAAAAAAAAAAAAAAAAAAAAAAAAAAAAAAAAAAAAAAAAAAAAAAAAAAAAAAAAAAAAAAAAAAAAAAAAAAAAAAAAAAAAAAAAAAAAAAAAAAAAAAAAAAAAAAAAAAAAAAAAAAAAAAAAAAAAAAAAAAAAAAAAAAAAAAAAAAAAAAAAAAAAAAAAAAAAAAAAAAAAAAAAAAAAAAAAAAAAAAAAAAAAAAAAAAAAAAAAAAAAAAAAAAAAAAAAAAAAAAAAAAAAAAAAAAAAAAAAAAAAAAAAAAAAAAAAAAAAAAAAAAAAAAAAAAAAAAAAAAAAAAAAAAAAAAAAAAAAAAAAAAAAAAAAAAAAAAAAAAAAAAAAAAAAAAAAAAAAAAAAAAAAAAAAAAAAAAAAAAAAAAAAAAAAAAAAAAAAAAAAAAAAAAAAAAAAAAAAAAAAAAAAAAAAAAAAAAAAAAAAAAAAAAAAAAAAAAAAAAAAAAAAAAAAAAAAAAAAAAAAAAAAAAAAAAAAAAAAAAAAAAAAAAAAAAAAAAAAAAAAAAAAAAAAAAAAAAAAAAAAAAAAAAAAAAAAAAAAAAAAAAAAAAAAAAAAAAAAAAAAAAAAAAAAAAAAAAAAAAAAAAAAAAAAAAAAAAAAAAAAAAAAAAAAAAAAAAAAAAAAAAAAAAAAAAAAAAAAAAAAAAAAAAAAAAAAAAAAAAAAAAAAAAAAAAAAAAAAAAAAAAAAAAAAAAAAAAAAAAAAAAAAAAAAAAAAAAAAAAAAAAAAAAAAAAAAAAAAAAAAAAAAAAAAAAAAAAAAAAAAAAAAAAAAAAAAAAAAAAAAAAAAAAAAAAAAAAAAAAAAAAAAAAAAAAAAAAAAAAAAAAAAAAAAAAAAAAAAAAAAAAAAAAAAAAAAAAAAAAAAAAAAAAAAAAAAAAAAAAAAAAAAAAAAAAAAAAAAAAAAAAAAAAAAAAAAAAAAAAAAAAAAAAAAAAAAAAAAAAAAAAAAAAAAAAAAAAAAAAAAAAAAAAAAAAAAAAAAAAAAAAAAAAAAAAAAAAAAAAAAAAAAAAAAAAAAAAAAAAAAAAAAAAAAAAAAAAAAAAAAAAAAAAAAAAAAAAAAAAAAAAAAAAAAAAAAAAAAAAAAAAAAAAAAAAAAAAAAAAAAAAAAAAAAAAAAAAAAAAAAAAAAAAAAAAAAAAAAAAAAAAAAAAAAAAAAAAAAAAAAAAAAAAAAAAAAAAAAAAAAAAAAAAAAAAAAAAAAAAAAAAAAAAAAAAAAAAAAAAAAAAAAAAAAAAAAAAAAAAAAAAAAAAAAAAAAAAAAAAAAAAAAAAAAAAAAAAAAAAAAAAAAAAAAAAAAAAAAAAAAAAAAAAAAAAAAAAAAAAAAAAAAAAAAAAAAAAAAAAAAAAAAAAAAAAAAAAAAAAAAAAAAAAAAAAAAAAAAAAAAAAAAAAAAAAAAAAAAAAAAAAAAAAAAAAAAAAAAAAAAAAAAAAAAAAAAAAAAAAAAAAAAAAAAAAAAAAAAAAAAAAAAAAAAAAAAAAAAAAAAAAAAAAAAAAAAAAAAAAAAAAAAAAAAAAAAAAAAAAAAAAAAAAAAAAAAAAAAAAAAAAAAAAAAAAAAAAAAAAAAAAAAAAAAAAAAAAAAAAAAAAAAAAAAAAAAAAAAAAAAAAAAAAAAAAAAAAAAAAAAAAAAAAAAAAAAAAAAAAAAAAAAAAAAAAAAAAAAAAAAAAAAAAAAAAAAAAAAAAAAAAAAAAAAAAAAAAAAAAAAAAAAAAAAAAAAAAAAAAAAAAAAAAAAAAAAAAAAAAAAAAAAAAAAAAAAAAAAAAAAAAAAAAAAAAAAAAAAAAAAAAAAAAAAAAAAAAAAAAAAAAAAAAAAAAAAAAAAAAAAAAAAAAAAAAAAAAAAAAAAAAAAAAAAAAAAAAAAAAAAAAAAAAAAAAAAAAAAAAAAAAAAAAAAAAAAAAAAAAAAAAAAAAAAAAAAAAAAAAAAAAAAAAAAAAAAAAAAAAAAAAAAAAAAAAAAAAAAAAAAAAAAAAAAAAAAAAAAAAAAAAAAAAAAAAAAAAAAAAAAAAAAAAAAAAAAAAAAAAAAAAAAAAAAAAAAAAAAAAAAAAAAAAAAAAAAAAAAAAAAAAAAAAAAAAAAAAAAAAAAAAAAAAAAAAAAAAAAAAAAAAAAAAAAAAAAAAAAAAAAAAAAAAAAAAAAAAAAAAAAAAAAAAAAAAAAAAAAAAAAAAAAAAAAAAAAAAAAAAAAAAAAAAAAAAAAAAAAAAAAAAAAAAAAAAAAAAAAAAAAAAAAAAAAAAAAAAAAAAAAAAAAAAAAAAAAAAAAAAAAAAAAAAAAAAAAAAAAAAAAAAAAAAAAAAAAAAAAAAAAAAAAAAAAAAAAAAAAAAAAAAAAAAAAAAAAAAAAAAAAAAAAAAAAAAAAAAAAAAAAAAAAAAAAAAAAAAAAAAAAAAAAAAAAAAAAAAAAAAAAAAAAAAAAAAAAAAAAAAAAAAAAAAAAAAAAAAAAAAAAAAAAAAAAAAAAAAAAAAAAAAAAAAAAAAAAAAAAAAAAAAAAAAAAAAAAAAAAAAAAAAAAAAAAAAAAAAAAAAAAAAAAAAAAAAAAAAAAAAAAAAAAAAAAAAAAAAAAAAAAAAAAAAAAAAAAAAAAAAAAAAAAAAAAAAAAAAAAAAAAAAAAAAAAAAAAAAAAAAAAAAAAAAAAAAAAAAAAAAAAAAAAAAAAAAAAAAAAAAAAAAAAAAAAAAAAAAAAAAAAAAAAAAAAAAAAAAAAAAAAAAAAAAAAAAAAAAAAAAAAAAAAAAAAAAAAAAAAAAAAAAAAAAAAAAAAAAAAAAAAAAAAAAAAAAAAAAAAAAAAAAAAAAAAAAAAAAAAAAAAAAAAAAAAAAAAAAAAAAAAAAAAAAAAAAAAAAAAAAAAAAAAAAAAAAAAAAAAAAAAAAAAAAAAAAAAAAAAAAAAAAAAAAAAAAAAAAAAAAAAAAAAAAAAAAAAAAAAAAAAAAAAAAAAAAAAAAAAAAAAAAAAAAAAAAAAAAAAAAAAAAAAAAAAAAAAAAAAAAAAAAAAAAAAAAAAAAAAAAAAAAAAAAAAAAAAAAAAAAAAAAAAAAAAAAAAAAAAAAAAAAAAAAAAAAAAAAAAAAAAAAAAAAAAAAAAAAAAAAAAAAAAAAAAAAAAAAAAAAAAAAAAAAAAAAAAAAAAAAAAAAAAAAAAAAAAAAAAAAAAAAAAAAAAAAAAAAAAAAAAAAAAAAAAAAAAAAAAAAAAAAAAAAAAAAAAAAAAAAAAAAAAAAAAAAAAAAAAAAAAAAAAAAAAAAAAAAAAAAAAAAAAAAAAAAAAAAAAAAAAAAAAAAAAAAAAAAAAAAAAAAAAAAAAAAAAAAAAAAAAAAAAAAAAAAAAAAAAAAAAAAAAAAAAAAAAAAAAAAAAAAAAAAAAAAAAAAAAAAAAAAAAAAAAAAAAAAAAAAAAAAAAAAAAAAAAAAAAAAAAAAAAAAAAAAAAAAAAAAAAAAAAAAAAAAAAAAAAAAAAAAAAAAAAAAAAAAAAAAAAAAAAAAAAAAAAAAAAAAAAAAAAAAAAAAAAAAAAAAAAAAAAAAAAAAAAAAAAAAAAAAAAAAAAAAAAAAAAAAAAAAAAAAAAAAAAAAAAAAAAAAAAAAAAAAAAAAAAAAAAAAAAAAAAAAAAAAAAAAAAAAAAAAAAAAAAAAAAAAAAAAAAAAAAAAAAAAAAAAAAAAAAAAAAAAAAAAAAAAAAAAAAAAAAAAAAAAAAAAAAAAAAAAAAAAAAAAAAAAAAAAAAAAAAAAAAAAAAAAAAAAAAAAAAAAAAAAAAAAAAAAAAAAAAAAAAAAAAAAAAAAAAAAAAAAAAAAAAAAAAAAAAAAAAAAAAAAAAAAAAAAAAAAAAAAAAAAAAAAAAAAAAAAAAAAAAAAAAAAAAAAAAAAAAAAAAAAAAAAAAAAAAAAAAAAAAAAAAAAAAAAAAAAAAAAAAAAAAAAAAAAAAAAAAAAAAAAAAAAAAAAAAAAAAAAAAAAAAAAAAAAAAAAAAAAAAPZYQOhtbHQdR86m3Q5GcsjKu70qyQri/lovsw8PFkZBw3p090XCpUvQz8k1svHGwSJRuvf6QPu4hzBsR58RD+uNhGE=</c2pa:manifest></metadata><title id="t">Key to the worksheet’s symbols</title><desc id="d">Key. Five supply-layer glyphs from land, power and shell to placement, with the standard and high-memory machine blocks; five stage circles filling from Intent to Organic; timeline marks for commit point, need date, ready for service, cautious lead time, range still open and actual; the firm, flexible and named slices; option, bridge and named-gap marks; numbered method-step pills; and badges for product team, shared service, finance, supply chain and planning.</desc><defs><pattern id="k-hatch-stranded" patternUnits="userSpaceOnUse" width="5" height="5" patternTransform="rotate(-45)"><rect width="5" height="5" fill="#E4E7EB"/><line x1="0" y1="0" x2="0" y2="5" stroke="#8A96A3" stroke-width="1.2"/></pattern><pattern id="k-hatch-tail" patternUnits="userSpaceOnUse" width="6" height="6" patternTransform="rotate(45)"><rect width="6" height="6" fill="#FFFFFF"/><line x1="0" y1="0" x2="0" y2="6" stroke="#616E7C" stroke-width="1.3"/></pattern><pattern id="k-hatch-blue" patternUnits="userSpaceOnUse" width="6" height="6" patternTransform="rotate(45)"><rect width="6" height="6" fill="#DCEBFA"/><line x1="0" y1="0" x2="0" y2="6" stroke="#0B63C4" stroke-width="1.6"/></pattern></defs><rect x="0" y="0" width="960" height="340" fill="#FFFFFF"/>
<text x="24" y="38" font-size="15" fill="#1F2933" font-weight="600">Supply layers</text>
<g transform="translate(25,53.5) scale(0.92)" fill="none" stroke="#1F2933" stroke-width="1.91" stroke-linecap="round" stroke-linejoin="round">
<path d="M1.5,21 H22.5 M3.5,21 V7 H20.5 V21"/>
<path d="M13.5,9 L8.5,15 H12 L10.5,19.5 L15.5,13 H12 Z" fill="#1F2933" stroke-width="1"/>
</g>
<text x="56" y="69.75" font-size="15" fill="#3E4C59">land, power, shell</text>
<g transform="translate(25,84.5) scale(0.92)" fill="none" stroke="#1F2933" stroke-width="1.91" stroke-linecap="round" stroke-linejoin="round">
<circle cx="4" cy="12" r="3"/><circle cx="20" cy="12" r="3"/>
<path d="M7,12 C8.5,6.5 10.5,6.5 12,12 S15.5,17.5 17,12"/>
</g>
<text x="56" y="100.75" font-size="15" fill="#3E4C59">network</text>
<g transform="translate(25,115.5) scale(0.92)" fill="none" stroke="#1F2933" stroke-width="1.91" stroke-linecap="round" stroke-linejoin="round">
<rect x="6" y="2" width="12" height="20" rx="1.5"/>
<path d="M9,7 H15 M9,12 H15 M9,17 H15"/>
</g>
<text x="56" y="131.75" font-size="15" fill="#3E4C59">machines and parts</text>
<g transform="translate(25,146.5) scale(0.92)" fill="none" stroke="#1F2933" stroke-width="1.91" stroke-linecap="round" stroke-linejoin="round">
<rect x="3" y="2" width="11" height="20" rx="1.5"/>
<path d="M5.5,7 H11.5 M5.5,12 H11.5"/>
<circle cx="17.5" cy="17" r="5.5" fill="#FFFFFF"/><path d="M15,17.2 L16.9,19 L20,15.3"/>
</g>
<text x="56" y="162.75" font-size="15" fill="#3E4C59">turn-up</text>
<g transform="translate(25,177.5) scale(0.92)" fill="none" stroke="#1F2933" stroke-width="1.91" stroke-linecap="round" stroke-linejoin="round">
<path d="M3,13 H21 V23 H3 Z M12,13 V23 M3,18 H21"/>
<path d="M12,16 C9,12 7.5,10 7.5,7.5 A4.5,4.5 0 0 1 16.5,7.5 C16.5,10 15,12 12,16 Z" fill="#FFFFFF"/><circle cx="12" cy="7.5" r="1.6" fill="#1F2933" stroke="none"/>
</g>
<text x="56" y="193.75" font-size="15" fill="#3E4C59">placement</text>
<rect x="24" y="211.4" width="24" height="7.2" rx="0.9" fill="#3E4C59" stroke="#1F2933" stroke-width="1.25" data-cat="cores-used" data-cue="shape"/>
<rect x="24" y="220.4" width="7.2" height="7.2" rx="0.6" fill="#E4E7EB" stroke="#1F2933" stroke-width="1.25"/>
<text x="56" y="224.75" font-size="15" fill="#3E4C59" style="font-feature-settings:'tnum' 1">standard machine · 1 NMU</text>
<rect x="24" y="242.4" width="24" height="7.2" rx="0.9" fill="#3E4C59" stroke="#1F2933" stroke-width="1.25" data-cat="cores-used" data-cue="shape"/>
<rect x="24" y="251.4" width="7.2" height="7.2" rx="0.6" fill="#E4E7EB" stroke="#1F2933" stroke-width="1.25"/>
<rect x="32.4" y="251.4" width="7.2" height="7.2" rx="0.6" fill="#E4E7EB" stroke="#1F2933" stroke-width="1.25"/>
<rect x="40.8" y="251.4" width="7.2" height="7.2" rx="0.6" fill="#E4E7EB" stroke="#1F2933" stroke-width="1.25"/>
<text x="56" y="255.75" font-size="15" fill="#3E4C59">high-memory machine · 1.4 NMU</text>
<text x="326.67" y="38" font-size="15" fill="#1F2933" font-weight="600">How firm a declaration is</text>
<g transform="translate(326.67,53.5) scale(0.92)" fill="none" stroke="#1F2933" stroke-width="1.91" stroke-linecap="round" stroke-linejoin="round">
<circle cx="12" cy="12" r="9" stroke-dasharray="3 2.6"/>
</g>
<text x="356.67" y="69.75" font-size="15" fill="#3E4C59">Intent</text>
<g transform="translate(326.67,84.5) scale(0.92)" fill="none" stroke="#1F2933" stroke-width="1.91" stroke-linecap="round" stroke-linejoin="round">
<path d="M12,12 L12,3 A9,9 0 0 1 21.00,12.00 Z" fill="#3E4C59" stroke="none"/>
<circle cx="12" cy="12" r="9"/>
</g>
<text x="356.67" y="100.75" font-size="15" fill="#3E4C59">Dated</text>
<g transform="translate(326.67,115.5) scale(0.92)" fill="none" stroke="#1F2933" stroke-width="1.91" stroke-linecap="round" stroke-linejoin="round">
<path d="M12,12 L12,3 A9,9 0 0 1 12.00,21.00 Z" fill="#3E4C59" stroke="none"/>
<circle cx="12" cy="12" r="9"/>
</g>
<text x="356.67" y="131.75" font-size="15" fill="#3E4C59">Configured</text>
<g transform="translate(326.67,146.5) scale(0.92)" fill="none" stroke="#1F2933" stroke-width="1.91" stroke-linecap="round" stroke-linejoin="round">
<path d="M12,12 L12,3 A9,9 0 1 1 3.00,12.00 Z" fill="#3E4C59" stroke="none"/>
<circle cx="12" cy="12" r="9"/>
</g>
<text x="356.67" y="162.75" font-size="15" fill="#3E4C59">Live</text>
<g transform="translate(326.67,177.5) scale(0.92)" fill="none" stroke="#1F2933" stroke-width="1.91" stroke-linecap="round" stroke-linejoin="round">
<path d="M2,22.5 L22,19.5" stroke="#616E7C"/><circle cx="12" cy="10.5" r="8" fill="#3E4C59"/>
</g>
<text x="356.67" y="193.75" font-size="15" fill="#3E4C59">Organic</text>
<text x="540.31" y="38" font-size="15" fill="#1F2933" font-weight="600">On the timeline</text>
<g transform="translate(540.31,53.5) scale(0.92)" fill="none" stroke="#1F2933" stroke-width="1.91" stroke-linecap="round" stroke-linejoin="round">
<circle cx="12" cy="12" r="5.5" fill="#1F2933" stroke="none"/>
</g>
<text x="570.31" y="69.75" font-size="15" fill="#3E4C59">commit point</text>
<g transform="translate(540.31,84.5) scale(0.92)" fill="none" stroke="#1F2933" stroke-width="1.91" stroke-linecap="round" stroke-linejoin="round">
<path d="M12,3 V21" stroke-width="2.45"/><path d="M8,21 H16"/>
</g>
<text x="570.31" y="100.75" font-size="15" fill="#3E4C59">need date</text>
<g transform="translate(540.31,115.5) scale(0.92)" fill="none" stroke="#1F2933" stroke-width="1.91" stroke-linecap="round" stroke-linejoin="round">
<path d="M7,22 V2.5"/><path d="M7,3.5 L19,7.5 L7,11.5 Z" fill="#1F2933"/>
</g>
<text x="570.31" y="131.75" font-size="15" fill="#3E4C59">ready for service</text>
<rect x="540.31" y="151.5" width="22" height="12" fill="url(#k-hatch-tail)" stroke="#616E7C" stroke-width="1" data-cat="cautious-tail" data-cue="pattern"/>
<text x="570.31" y="162.75" font-size="15" fill="#3E4C59">cautious lead time</text>
<g data-role="uncertainty">
<path d="M547.31,179.7 H555.31 M551.31,179.7 V197.3 M547.31,197.3 H555.31" fill="none" stroke="#B4530A" stroke-width="2.5" stroke-linejoin="round" stroke-linecap="round"/>
</g>
<text x="570.31" y="193.75" font-size="15" fill="#3E4C59">range still open</text>
<g transform="translate(540.31,208.5) scale(0.92)" fill="none" stroke="#1F2933" stroke-width="1.91" stroke-linecap="round" stroke-linejoin="round">
<path d="M6,6 L18,18 M18,6 L6,18" stroke-width="2.73"/>
</g>
<text x="570.31" y="224.75" font-size="15" fill="#3E4C59">actual</text>
<text x="733.32" y="38" font-size="15" fill="#1F2933" font-weight="600">What you commit</text>
<rect x="739.32" y="56.5" width="28" height="16" fill="#3E4C59" stroke="#1F2933" stroke-width="1" data-cat="firm" data-cue="label"/>
<text x="781.32" y="69.75" font-size="15" fill="#3E4C59">firm</text>
<rect x="739.32" y="87.5" width="28" height="16" fill="url(#k-hatch-blue)" stroke="#0B63C4" stroke-width="1.5" data-cat="flexible" data-cue="pattern"/>
<text x="781.32" y="100.75" font-size="15" fill="#3E4C59">flexible</text>
<rect x="739.32" y="118.5" width="34" height="16" fill="#FFFFFF" stroke="#1F2933" stroke-width="1.75" stroke-dasharray="1.5 3" data-cat="named" data-cue="shape"/>
<g transform="translate(757.32,121.5) scale(0.42)" fill="none" stroke="#1F2933" stroke-width="4.2" stroke-linecap="round" stroke-linejoin="round">
<path d="M4,6 H17.5 L22.5,12 L17.5,18 H4 Q2,18 2,16 V8 Q2,6 4,6 Z"/><circle cx="18" cy="12" r="1.3"/>
<path d="M5,18 V13.5 M8,18 V15 M11,18 V13.5 M14,18 V15"/>
</g>
<text x="781.32" y="131.75" font-size="15" fill="#3E4C59">named</text>
<g transform="translate(742.32,146.5) scale(0.92)" fill="none" stroke="#1F2933" stroke-width="1.91" stroke-linecap="round" stroke-linejoin="round">
<circle cx="12" cy="12" r="8" fill="#FFFFFF" stroke-dasharray="3.2 2.4"/><path d="M8.2,12.4 L11,15.2 L16,9.4" stroke-width="2.18"/>
</g>
<text x="781.32" y="162.75" font-size="15" fill="#3E4C59">option</text>
<g transform="translate(742.32,177.5) scale(0.92)" fill="none" stroke="#1F2933" stroke-width="1.91" stroke-linecap="round" stroke-linejoin="round">
<path d="M1.5,10 H22.5 M4,19.5 Q12,2.5 20,19.5 M8,10 V12.4 M16,10 V12.4 M12,10 V10.8"/>
</g>
<text x="781.32" y="193.75" font-size="15" fill="#3E4C59">bridge</text>
<path d="M740.72,210.5 H735.72 V228.5 H740.72 M765.92,210.5 H770.92 V228.5 H765.92" fill="none" stroke="#1F2933" stroke-width="1.75" stroke-linejoin="round" stroke-linecap="round"/>
<g transform="translate(746.5,212.68) scale(0.57)" fill="none" stroke="#1F2933" stroke-width="3.08" stroke-linecap="round" stroke-linejoin="round">
<path d="M4,6 H17.5 L22.5,12 L17.5,18 H4 Q2,18 2,16 V8 Q2,6 4,6 Z"/><circle cx="18" cy="12" r="1.3"/>
<path d="M5,18 V13.5 M8,18 V15 M11,18 V13.5 M14,18 V15"/>
</g>
<text x="781.32" y="224.75" font-size="15" fill="#3E4C59">named gap</text>
<rect x="736.82" y="239.5" width="33" height="22" rx="11" fill="#1F2933" stroke="none"/>
<text x="753.32" y="256.5" font-size="17" fill="#FFFFFF" text-anchor="middle" font-weight="600" style="font-feature-settings:'tnum' 1">3</text>
<text x="781.32" y="255.75" font-size="15" fill="#3E4C59" style="font-feature-settings:'tnum' 1">method step 1–8</text>
<text x="24" y="297.75" font-size="15" fill="#1F2933" font-weight="600">Who owns it</text>
<g transform="translate(131.54,281.5) scale(0.92)" fill="none" stroke="#1F2933" stroke-width="1.91" stroke-linecap="round" stroke-linejoin="round">
<circle cx="12" cy="12" r="10.5"/><circle cx="12" cy="9" r="3.2"/><path d="M6.3,19 C7,14.6 17,14.6 17.7,19"/>
</g>
<text x="161.54" y="297.75" font-size="15" fill="#3E4C59">product team</text>
<g transform="translate(278.31,281.5) scale(0.92)" fill="none" stroke="#1F2933" stroke-width="1.91" stroke-linecap="round" stroke-linejoin="round">
<polygon points="21.53,17.50 12.00,23.00 2.47,17.50 2.47,6.50 12.00,1.00 21.53,6.50"/><path d="M8,8.5 H16 M8,12 H16 M8,15.5 H16" stroke-width="2.40"/>
</g>
<text x="308.31" y="297.75" font-size="15" fill="#3E4C59">shared service</text>
<g transform="translate(434.98,281.5) scale(0.92)" fill="none" stroke="#1F2933" stroke-width="1.91" stroke-linecap="round" stroke-linejoin="round">
<rect x="2.5" y="2.5" width="19" height="19" rx="1"/>
<path d="M15,8.6 C14.2,6.9 9,6.6 9,9.5 C9,12.3 15,11.4 15,14.5 C15,17.5 9.6,17.3 8.8,15.4 M12,5 V19"/>
</g>
<text x="464.98" y="297.75" font-size="15" fill="#3E4C59">finance</text>
<g transform="translate(539.62,281.5) scale(0.92)" fill="none" stroke="#1F2933" stroke-width="1.91" stroke-linecap="round" stroke-linejoin="round">
<rect x="3.5" y="9" width="17" height="12.5"/><rect x="2" y="5" width="20" height="4"/><path d="M9.5,9 V21.5 M14.5,9 V21.5"/>
</g>
<text x="569.62" y="297.75" font-size="15" fill="#3E4C59">supply chain</text>
<g transform="translate(681.4,281.5) scale(0.92)" fill="none" stroke="#1F2933" stroke-width="1.91" stroke-linecap="round" stroke-linejoin="round">
<path d="M4,6 H17.5 L22.5,12 L17.5,18 H4 Q2,18 2,16 V8 Q2,6 4,6 Z"/><circle cx="18" cy="12" r="1.3"/>
<path d="M5,18 V13.5 M8,18 V15 M11,18 V13.5 M14,18 V15"/>
</g>
<text x="711.4" y="297.75" font-size="15" fill="#3E4C59">planning</text>
</svg>
