<svg xmlns="http://www.w3.org/2000/svg" viewBox="0 0 960 536" width="100%" role="img" aria-labelledby="t d" data-canvas="standard" preserveAspectRatio="xMidYMid meet" style="max-width:100%;height:auto;display:block" font-family="Inter, -apple-system, 'Segoe UI', Roboto, Helvetica, Arial, sans-serif"><title id="t">Attribute what you can measure; apportion the rest</title><desc id="d">Flow diagram. Equipment, power, space and staff bills flow through resource drivers to shared services, then through traced, sampled activity drivers to Products A, B and C. A network example, labeled as a shared service with its own drivers, reads "bytes replicated per byte written; cross-region calls per request". A side branch carries rootless background work (compaction, replication, re-indexing and backups) and the unattributable leftover δ to an unallocated line, apportioned by declared policy and owned by the service. The formula c(s,r) = sum over products of a(s,p) times ρ(p,r), plus δ(s,r), is shown with its source [2]. A note says Dapper's first version sampled one trace in 1,024 [12]. Schematic.</desc><rect x="0" y="0" width="960" height="536" fill="#FFFFFF"/>
<text x="24" y="40" font-size="17" fill="#1F2933" font-weight="600">Bills</text>
<text x="330" y="40" font-size="17" fill="#1F2933" font-weight="600">Shared services</text>
<text x="790" y="40" font-size="17" fill="#1F2933" font-weight="600">Products</text>
<path d="M86,35 L308.8,35" fill="none" stroke="#8A96A3" stroke-width="1.5" stroke-linejoin="round" stroke-linecap="round"/>
<path d="M316,35 L307,39.5 L307,30.5 Z" fill="#8A96A3" stroke="none" stroke-linejoin="round" stroke-linecap="round"/>
<text x="201" y="57" font-size="15" fill="#3E4C59" text-anchor="middle">resource drivers</text>
<path d="M494,35 L768.8,35" fill="none" stroke="#0B63C4" stroke-width="2.5" stroke-linejoin="round" stroke-linecap="round"/>
<path d="M776,35 L767,39.5 L767,30.5 Z" fill="#0B63C4" stroke="none" stroke-linejoin="round" stroke-linecap="round"/>
<text x="635" y="57" font-size="15" fill="#0B63C4" text-anchor="middle" font-weight="600">activity drivers (traced, sampled)</text>
<text x="635" y="77" font-size="15" fill="#0B63C4" text-anchor="middle">the signal reaches the caller</text>
<rect x="24" y="86" width="132" height="44" rx="6" fill="#F5F7FA" stroke="#8A96A3" stroke-width="1.25"/>
<text x="90" y="113.25" font-size="15" fill="#1F2933" text-anchor="middle">equipment</text>
<rect x="24" y="138" width="132" height="44" rx="6" fill="#F5F7FA" stroke="#8A96A3" stroke-width="1.25"/>
<text x="90" y="165.25" font-size="15" fill="#1F2933" text-anchor="middle">power</text>
<rect x="24" y="190" width="132" height="44" rx="6" fill="#F5F7FA" stroke="#8A96A3" stroke-width="1.25"/>
<text x="90" y="217.25" font-size="15" fill="#1F2933" text-anchor="middle">space</text>
<rect x="24" y="242" width="132" height="44" rx="6" fill="#F5F7FA" stroke="#8A96A3" stroke-width="1.25"/>
<text x="90" y="269.25" font-size="15" fill="#1F2933" text-anchor="middle">staff</text>
<rect x="330" y="108" width="150" height="44" rx="6" fill="#F5F7FA" stroke="#8A96A3" stroke-width="1.25"/>
<g transform="translate(446,119) scale(0.92)" fill="none" stroke="#1F2933" stroke-width="1.91" stroke-linecap="round" stroke-linejoin="round">
<polygon points="21.53,17.50 12.00,23.00 2.47,17.50 2.47,6.50 12.00,1.00 21.53,6.50"/><path d="M8,8.5 H16 M8,12 H16 M8,15.5 H16" stroke-width="2.40"/>
</g>
<text x="391" y="135.25" font-size="15" fill="#1F2933" text-anchor="middle">Service X</text>
<rect x="330" y="208" width="150" height="44" rx="6" fill="#F5F7FA" stroke="#8A96A3" stroke-width="1.25"/>
<g transform="translate(446,219) scale(0.92)" fill="none" stroke="#1F2933" stroke-width="1.91" stroke-linecap="round" stroke-linejoin="round">
<polygon points="21.53,17.50 12.00,23.00 2.47,17.50 2.47,6.50 12.00,1.00 21.53,6.50"/><path d="M8,8.5 H16 M8,12 H16 M8,15.5 H16" stroke-width="2.40"/>
</g>
<text x="391" y="235.25" font-size="15" fill="#1F2933" text-anchor="middle">Service Y</text>
<rect x="790" y="96" width="146" height="44" rx="6" fill="#F5F7FA" stroke="#8A96A3" stroke-width="1.25"/>
<g transform="translate(902,107) scale(0.92)" fill="none" stroke="#1F2933" stroke-width="1.91" stroke-linecap="round" stroke-linejoin="round">
<circle cx="12" cy="12" r="10.5"/><circle cx="12" cy="9" r="3.2"/><path d="M6.3,19 C7,14.6 17,14.6 17.7,19"/>
</g>
<text x="849" y="123.25" font-size="15" fill="#1F2933" text-anchor="middle">Product A</text>
<rect x="790" y="160" width="146" height="44" rx="6" fill="#F5F7FA" stroke="#8A96A3" stroke-width="1.25"/>
<g transform="translate(902,171) scale(0.92)" fill="none" stroke="#1F2933" stroke-width="1.91" stroke-linecap="round" stroke-linejoin="round">
<circle cx="12" cy="12" r="10.5"/><circle cx="12" cy="9" r="3.2"/><path d="M6.3,19 C7,14.6 17,14.6 17.7,19"/>
</g>
<text x="849" y="187.25" font-size="15" fill="#1F2933" text-anchor="middle">Product B</text>
<rect x="790" y="224" width="146" height="44" rx="6" fill="#F5F7FA" stroke="#8A96A3" stroke-width="1.25"/>
<g transform="translate(902,235) scale(0.92)" fill="none" stroke="#1F2933" stroke-width="1.91" stroke-linecap="round" stroke-linejoin="round">
<circle cx="12" cy="12" r="10.5"/><circle cx="12" cy="9" r="3.2"/><path d="M6.3,19 C7,14.6 17,14.6 17.7,19"/>
</g>
<text x="849" y="251.25" font-size="15" fill="#1F2933" text-anchor="middle">Product C</text>
<path d="M156.0,108.0 C243.0,108.0 243.0,130.0 321.0,130.0" fill="none" stroke="#CBD2D9" stroke-width="7" stroke-linejoin="round" stroke-linecap="round"/>
<path d="M330.0,130.0 L320.0,124.0 L320.0,136.0 Z" fill="#8A96A3" stroke="none" stroke-linejoin="round" stroke-linecap="round"/>
<path d="M156.0,108.0 C243.0,108.0 243.0,230.0 321.0,230.0" fill="none" stroke="#CBD2D9" stroke-width="7" stroke-linejoin="round" stroke-linecap="round"/>
<path d="M330.0,230.0 L320.0,224.0 L320.0,236.0 Z" fill="#8A96A3" stroke="none" stroke-linejoin="round" stroke-linecap="round"/>
<path d="M156.0,160.0 C243.0,160.0 243.0,130.0 321.0,130.0" fill="none" stroke="#CBD2D9" stroke-width="7" stroke-linejoin="round" stroke-linecap="round"/>
<path d="M330.0,130.0 L320.0,124.0 L320.0,136.0 Z" fill="#8A96A3" stroke="none" stroke-linejoin="round" stroke-linecap="round"/>
<path d="M156.0,160.0 C243.0,160.0 243.0,230.0 321.0,230.0" fill="none" stroke="#CBD2D9" stroke-width="7" stroke-linejoin="round" stroke-linecap="round"/>
<path d="M330.0,230.0 L320.0,224.0 L320.0,236.0 Z" fill="#8A96A3" stroke="none" stroke-linejoin="round" stroke-linecap="round"/>
<path d="M156.0,212.0 C243.0,212.0 243.0,130.0 321.0,130.0" fill="none" stroke="#CBD2D9" stroke-width="7" stroke-linejoin="round" stroke-linecap="round"/>
<path d="M330.0,130.0 L320.0,124.0 L320.0,136.0 Z" fill="#8A96A3" stroke="none" stroke-linejoin="round" stroke-linecap="round"/>
<path d="M156.0,212.0 C243.0,212.0 243.0,230.0 321.0,230.0" fill="none" stroke="#CBD2D9" stroke-width="7" stroke-linejoin="round" stroke-linecap="round"/>
<path d="M330.0,230.0 L320.0,224.0 L320.0,236.0 Z" fill="#8A96A3" stroke="none" stroke-linejoin="round" stroke-linecap="round"/>
<path d="M156.0,264.0 C243.0,264.0 243.0,130.0 321.0,130.0" fill="none" stroke="#CBD2D9" stroke-width="7" stroke-linejoin="round" stroke-linecap="round"/>
<path d="M330.0,130.0 L320.0,124.0 L320.0,136.0 Z" fill="#8A96A3" stroke="none" stroke-linejoin="round" stroke-linecap="round"/>
<path d="M156.0,264.0 C243.0,264.0 243.0,230.0 321.0,230.0" fill="none" stroke="#CBD2D9" stroke-width="7" stroke-linejoin="round" stroke-linecap="round"/>
<path d="M330.0,230.0 L320.0,224.0 L320.0,236.0 Z" fill="#8A96A3" stroke="none" stroke-linejoin="round" stroke-linecap="round"/>
<path d="M480.0,130.0 C635.0,130.0 635.0,118.0 781.0,118.0" fill="none" stroke="#CBD2D9" stroke-width="7" stroke-linejoin="round" stroke-linecap="round"/>
<path d="M790.0,118.0 L780.0,112.0 L780.0,124.0 Z" fill="#8A96A3" stroke="none" stroke-linejoin="round" stroke-linecap="round"/>
<path d="M480.0,130.0 C635.0,130.0 635.0,182.0 781.0,182.0" fill="none" stroke="#CBD2D9" stroke-width="7" stroke-linejoin="round" stroke-linecap="round"/>
<path d="M790.0,182.0 L780.0,176.0 L780.0,188.0 Z" fill="#8A96A3" stroke="none" stroke-linejoin="round" stroke-linecap="round"/>
<path d="M480.0,130.0 C635.0,130.0 635.0,246.0 781.0,246.0" fill="none" stroke="#CBD2D9" stroke-width="7" stroke-linejoin="round" stroke-linecap="round"/>
<path d="M790.0,246.0 L780.0,240.0 L780.0,252.0 Z" fill="#8A96A3" stroke="none" stroke-linejoin="round" stroke-linecap="round"/>
<path d="M480.0,230.0 C635.0,230.0 635.0,118.0 781.0,118.0" fill="none" stroke="#CBD2D9" stroke-width="7" stroke-linejoin="round" stroke-linecap="round"/>
<path d="M790.0,118.0 L780.0,112.0 L780.0,124.0 Z" fill="#8A96A3" stroke="none" stroke-linejoin="round" stroke-linecap="round"/>
<path d="M480.0,230.0 C635.0,230.0 635.0,182.0 781.0,182.0" fill="none" stroke="#CBD2D9" stroke-width="7" stroke-linejoin="round" stroke-linecap="round"/>
<path d="M790.0,182.0 L780.0,176.0 L780.0,188.0 Z" fill="#8A96A3" stroke="none" stroke-linejoin="round" stroke-linecap="round"/>
<path d="M480.0,230.0 C635.0,230.0 635.0,246.0 781.0,246.0" fill="none" stroke="#CBD2D9" stroke-width="7" stroke-linejoin="round" stroke-linecap="round"/>
<path d="M790.0,246.0 L780.0,240.0 L780.0,252.0 Z" fill="#8A96A3" stroke="none" stroke-linejoin="round" stroke-linecap="round"/>
<circle cx="695" cy="241" r="2.5" fill="#616E7C" stroke="none"/>
<text x="520" y="312" font-size="15" fill="#3E4C59" stroke="#FFFFFF" stroke-width="4" paint-order="stroke" stroke-linejoin="round"><tspan x="520" dy="0">e.g. network, a shared service: bytes replicated</tspan><tspan x="520" dy="19.5">per byte written; cross-region calls per request</tspan></text>
<polyline points="695,241 695,296.6" fill="none" stroke="#8A96A3" stroke-width="1" stroke-linejoin="round" stroke-linecap="round"/>
<rect x="136" y="296" width="358" height="144" rx="10" fill="none" stroke="#8A96A3" stroke-width="1.25" stroke-dasharray="6 4"/>
<rect x="147" y="289.25" width="183.57" height="16.5" rx="2" fill="#FFFFFF" stroke="none"/>
<text x="150" y="301.25" font-size="15" fill="#3E4C59">what no request explains</text>
<rect x="150" y="314" width="330" height="64" rx="6" fill="#F5F7FA" stroke="#8A96A3" stroke-width="1.25"/>
<text x="315" y="341.5" font-size="15" fill="#1F2933" text-anchor="middle"><tspan x="315" dy="0">rootless background work: compaction,</tspan><tspan x="315" dy="19.5">replication, re-indexing, backups</tspan></text>
<rect x="150" y="386" width="330" height="44" rx="6" fill="#F5F7FA" stroke="#8A96A3" stroke-width="1.25"/>
<text x="315" y="413.25" font-size="15" fill="#1F2933" text-anchor="middle">δ: what nobody can attribute</text>
<path d="M644,346 H926 L936,356 V410 H644 Z" fill="#F5F7FA" stroke="#8A96A3" stroke-width="1.25" stroke-linejoin="round" stroke-linecap="round"/>
<path d="M926,346 V356 H936" fill="#CBD2D9" stroke="#8A96A3" stroke-width="1" stroke-linejoin="round" stroke-linecap="round"/>
<g transform="translate(902,367) scale(0.92)" fill="none" stroke="#1F2933" stroke-width="1.91" stroke-linecap="round" stroke-linejoin="round">
<polygon points="21.53,17.50 12.00,23.00 2.47,17.50 2.47,6.50 12.00,1.00 21.53,6.50"/><path d="M8,8.5 H16 M8,12 H16 M8,15.5 H16" stroke-width="2.40"/>
</g>
<text x="773" y="373.5" font-size="15" fill="#1F2933" text-anchor="middle"><tspan x="773" dy="0">apportioned by declared policy</tspan><tspan x="773" dy="19.5">→ unallocated line (owned)</tspan></text>
<path d="M360,252 L360,306.8" fill="none" stroke="#8A96A3" stroke-width="1.5" stroke-linejoin="round" stroke-linecap="round"/>
<path d="M360,314 L355.5,305 L364.5,305 Z" fill="#1F2933" stroke="none" stroke-linejoin="round" stroke-linecap="round"/>
<path d="M480,346 L620,346 Q628,346 628,354 L628,355.92 Q628,363.92 636,363.92 L636.8,363.92" fill="none" stroke="#8A96A3" stroke-width="1.5" stroke-linejoin="round" stroke-linecap="round"/>
<path d="M644,363.92 L635,368.42 L635,359.42 Z" fill="#1F2933" stroke="none" stroke-linejoin="round" stroke-linecap="round"/>
<path d="M480,408 L620.04,408 Q628,408 628,400.04 L628,400.04 Q628,392.08 635.96,392.08 L636.8,392.08" fill="none" stroke="#8A96A3" stroke-width="1.5" stroke-linejoin="round" stroke-linecap="round"/>
<path d="M644,392.08 L635,396.58 L635,387.58 Z" fill="#1F2933" stroke="none" stroke-linejoin="round" stroke-linecap="round"/>
<rect x="24" y="446" width="912" height="36" rx="4" fill="#F5F7FA" stroke="#CBD2D9" stroke-width="1"/>
<text x="40" y="470" font-size="17" fill="#1F2933" font-weight="600">c(s,r) = Σₚ a(s,p)·ρ(p,r) + δ(s,r)</text>
<text x="302.08" y="470" font-size="15" fill="#3E4C59" style="font-feature-settings:'tnum' 1">[2]   each product’s share of s, times its traffic share in region r, plus a leftover</text>
<text x="24" y="508" font-size="15" fill="#3E4C59" style="font-feature-settings:'tnum' 1">Traces are sampled: one in 1,024 in Dapper’s first version [12]; small callers are estimated least accurately.</text>
<text x="936" y="508" font-size="15" fill="#3E4C59" text-anchor="end">Schematic</text>
</svg>
